<svg enable-background="new 0 0 512 512" viewBox="0 0 512 512" xmlns="http://www.w3.org/2000/svg"><path d="m194.403 65.46-4.853-15.026c-5.645 1.823-11.287 3.909-16.769 6.199l6.088 14.57c5.078-2.122 10.305-4.054 15.534-5.743z"/><path d="m148.206 87.276-8.514-13.298c-22.672 14.516-42.233 32.904-58.138 54.652l12.745 9.32c14.749-20.166 32.885-37.215 53.907-50.674z"/><path d="m437.019 74.981c-48.352-48.352-112.639-74.981-181.02-74.981-68.38 0-132.668 26.628-181.019 74.981-48.351 48.352-74.98 112.639-74.98 181.02s26.628 132.668 74.981 181.019c48.352 48.351 112.638 74.98 181.018 74.98s132.668-26.628 181.019-74.981c48.353-48.352 74.982-112.638 74.982-181.019s-26.629-132.667-74.981-181.019zm58.344 160.834-54.771-39.793 20.953-64.485c19.155 31.502 30.737 67.018 33.818 104.278zm-69.509-149.669c8.992 8.992 17.169 18.58 24.524 28.66l-25.534 78.583-69.203 33.325-91.746-66.657v-84.368l66.392-48.236c35.646 11.544 68.308 31.433 95.567 58.693zm-80.317 152.743-34.201 105.256h-110.672l-34.2-105.256 89.536-65.051zm-89.538-223.099c18.702 0 37.073 2.138 54.846 6.27l-54.846 39.849-54.846-39.849c17.775-4.132 36.146-6.27 54.846-6.27zm-169.854 70.356c27.26-27.26 59.922-47.149 95.568-58.694l66.392 48.237v84.366l-91.747 66.658-69.203-33.325-25.535-78.582c7.356-10.08 15.533-19.668 24.525-28.66zm-35.69 45.39 20.952 64.485-54.769 39.793c3.08-37.259 14.662-72.775 33.817-104.278zm-34.665 124.465c0-.018.001-.035.001-.053l65.722-47.75 69.203 33.325 35.302 108.65-41.909 47.061h-82.46c-29.771-40.788-45.859-89.772-45.859-141.233zm70.355 169.854c-4.154-4.154-8.132-8.435-11.94-12.831h67.71l20.968 64.532c-28.327-11.907-54.354-29.318-76.738-51.701zm169.854 70.355c-25.594 0-50.571-3.987-74.237-11.647l-25.203-77.567 41.908-47.061h115.064l41.908 47.062-25.202 77.566c-23.666 7.659-48.644 11.647-74.238 11.647zm169.855-70.355c-22.383 22.383-48.41 39.794-76.737 51.702l20.968-64.532h67.71c-3.809 4.395-7.787 8.676-11.941 12.83zm-57.965-28.623v.002l-41.908-47.062 35.302-108.65 69.203-33.325 65.723 47.75c0 .017.001.035.001.052 0 51.463-16.088 100.446-45.861 141.233z"/></svg>